<svg width="28" height="28" viewBox="0 0 28 28" fill="none" xmlns="http://www.w3.org/2000/svg">
  <g clip-path="url(#clip0_10355_9435)">
    <path d="M18.6667 9.33377C18.4479 9.11506 18.1512 8.99219 17.8418 8.99219C17.5325 8.99219 17.2358 9.11506 17.017 9.33377L14 12.3508L10.983 9.33377C10.763 9.12125 10.4683 9.00366 10.1624 9.00632C9.85649 9.00898 9.56388 9.13167 9.34757 9.34798C9.13126 9.56429 9.00856 9.85691 9.0059 10.1628C9.00325 10.4687 9.12084 10.7634 9.33336 10.9834L12.3504 14.0004L9.33336 17.0174C9.12084 17.2375 9.00325 17.5322 9.0059 17.8381C9.00856 18.144 9.13126 18.4366 9.34757 18.6529C9.56388 18.8692 9.85649 18.9919 10.1624 18.9946C10.4683 18.9972 10.763 18.8796 10.983 18.6671L14 15.6501L17.017 18.6671C17.237 18.8796 17.5317 18.9972 17.8376 18.9946C18.1435 18.9919 18.4362 18.8692 18.6525 18.6529C18.8688 18.4366 18.9915 18.144 18.9941 17.8381C18.9968 17.5322 18.8792 17.2375 18.6667 17.0174L15.6497 14.0004L18.6667 10.9834C18.8854 10.7647 19.0083 10.468 19.0083 10.1586C19.0083 9.84925 18.8854 9.55255 18.6667 9.33377Z" fill="#ef4444"/>
    <path d="M14 0C11.2311 0 8.52431 0.821086 6.22202 2.35943C3.91973 3.89777 2.12532 6.08427 1.06569 8.64243C0.006066 11.2006 -0.271181 14.0155 0.269012 16.7313C0.809205 19.447 2.14258 21.9416 4.10051 23.8995C6.05845 25.8574 8.55301 27.1908 11.2687 27.731C13.9845 28.2712 16.7994 27.9939 19.3576 26.9343C21.9157 25.8747 24.1022 24.0803 25.6406 21.778C27.1789 19.4757 28 16.7689 28 14C27.996 10.2882 26.5197 6.72958 23.8951 4.10494C21.2704 1.4803 17.7118 0.0040146 14 0V0ZM14 25.6667C11.6926 25.6667 9.43693 24.9824 7.51835 23.7005C5.59978 22.4185 4.10443 20.5964 3.22141 18.4646C2.33839 16.3328 2.10735 13.9871 2.55751 11.7239C3.00767 9.46084 4.11881 7.38203 5.75043 5.75042C7.38204 4.11881 9.46084 3.00767 11.724 2.55751C13.9871 2.10734 16.3328 2.33838 18.4646 3.22141C20.5965 4.10443 22.4185 5.59977 23.7005 7.51835C24.9824 9.43692 25.6667 11.6926 25.6667 14C25.6633 17.0932 24.433 20.0586 22.2458 22.2458C20.0586 24.433 17.0932 25.6633 14 25.6667V25.6667Z" fill="#ef4444"/>
  </g>
  <defs>
    <clipPath id="clip0_10355_9435">
      <rect width="28" height="28" fill="white"/>
    </clipPath>
  </defs>
</svg>
