<svg width="24" height="25" viewBox="0 0 24 25" fill="none" xmlns="http://www.w3.org/2000/svg">
<g clip-path="url(#clip0_10204_5185)">
<path d="M12 8.75195C11.2089 8.75195 10.4355 8.98655 9.77772 9.42607C9.11993 9.8656 8.60723 10.4903 8.30448 11.2212C8.00173 11.9521 7.92252 12.7564 8.07686 13.5323C8.2312 14.3082 8.61216 15.021 9.17157 15.5804C9.73098 16.1398 10.4437 16.5208 11.2196 16.6751C11.9956 16.8294 12.7998 16.7502 13.5307 16.4475C14.2616 16.1447 14.8864 15.632 15.3259 14.9742C15.7654 14.3164 16 13.5431 16 12.752C16 11.6911 15.5786 10.6737 14.8284 9.92353C14.0783 9.17338 13.0609 8.75195 12 8.75195ZM12 14.752C11.6044 14.752 11.2178 14.6347 10.8889 14.4149C10.56 14.1951 10.3036 13.8828 10.1522 13.5173C10.0009 13.1519 9.96126 12.7497 10.0384 12.3618C10.1156 11.9738 10.3061 11.6174 10.5858 11.3377C10.8655 11.058 11.2219 10.8676 11.6098 10.7904C11.9978 10.7132 12.3999 10.7528 12.7654 10.9042C13.1308 11.0556 13.4432 11.3119 13.6629 11.6408C13.8827 11.9697 14 12.3564 14 12.752C14 13.2824 13.7893 13.7911 13.4142 14.1662C13.0391 14.5412 12.5304 14.752 12 14.752Z" fill="#9CA3AF"/>
<path d="M21.2938 14.652L20.8498 14.396C21.0497 13.3084 21.0497 12.1935 20.8498 11.106L21.2938 10.85C21.6352 10.653 21.9345 10.3907 22.1746 10.078C22.4147 9.76536 22.5908 9.40849 22.6929 9.02777C22.7951 8.64705 22.8212 8.24994 22.7699 7.85911C22.7186 7.46828 22.5908 7.09139 22.3938 6.74995C22.1968 6.40852 21.9345 6.10922 21.6219 5.86916C21.3092 5.62909 20.9523 5.45296 20.5716 5.35082C20.1909 5.24867 19.7938 5.22252 19.403 5.27384C19.0121 5.32517 18.6352 5.45297 18.2938 5.64995L17.8488 5.90695C17.0083 5.18887 16.0425 4.6322 14.9998 4.26495V3.75195C14.9998 2.9563 14.6837 2.19324 14.1211 1.63063C13.5585 1.06802 12.7954 0.751953 11.9998 0.751953C11.2041 0.751953 10.4411 1.06802 9.87848 1.63063C9.31587 2.19324 8.9998 2.9563 8.9998 3.75195V4.26495C7.95719 4.63352 6.99165 5.19155 6.1518 5.91095L5.7048 5.65195C5.01524 5.25413 4.19588 5.14652 3.42698 5.35282C2.65808 5.55911 2.00262 6.06239 1.6048 6.75195C1.20697 7.44152 1.09937 8.26087 1.30566 9.02977C1.51195 9.79867 2.01524 10.4541 2.7048 10.852L3.1488 11.108C2.94891 12.1955 2.94891 13.3104 3.1488 14.398L2.7048 14.654C2.01524 15.0518 1.51195 15.7072 1.30566 16.4761C1.09937 17.245 1.20697 18.0644 1.6048 18.754C2.00262 19.4435 2.65808 19.9468 3.42698 20.1531C4.19588 20.3594 5.01524 20.2518 5.7048 19.854L6.1498 19.597C6.99056 20.3151 7.95678 20.8718 8.9998 21.239V21.752C8.9998 22.5476 9.31587 23.3107 9.87848 23.8733C10.4411 24.4359 11.2041 24.752 11.9998 24.752C12.7954 24.752 13.5585 24.4359 14.1211 23.8733C14.6837 23.3107 14.9998 22.5476 14.9998 21.752V21.239C16.0424 20.8704 17.008 20.3124 17.8478 19.593L18.2948 19.851C18.9844 20.2488 19.8037 20.3564 20.5726 20.1501C21.3415 19.9438 21.997 19.4405 22.3948 18.751C22.7926 18.0614 22.9002 17.242 22.6939 16.4731C22.4876 15.7042 21.9844 15.0488 21.2948 14.651L21.2938 14.652ZM18.7458 10.876C19.0844 12.103 19.0844 13.3989 18.7458 14.626C18.6867 14.8395 18.7002 15.0667 18.7841 15.2718C18.8681 15.4768 19.0178 15.6482 19.2098 15.759L20.2938 16.385C20.5236 16.5176 20.6913 16.736 20.7601 16.9923C20.8288 17.2486 20.7929 17.5216 20.6603 17.7515C20.5277 17.9813 20.3092 18.149 20.053 18.2177C19.7967 18.2864 19.5236 18.2506 19.2938 18.118L18.2078 17.49C18.0157 17.3787 17.792 17.3345 17.572 17.3644C17.3521 17.3943 17.1483 17.4965 16.9928 17.655C16.1027 18.5636 14.9814 19.2119 13.7498 19.53C13.5348 19.5852 13.3444 19.7104 13.2084 19.8859C13.0724 20.0613 12.9987 20.277 12.9988 20.499V21.752C12.9988 22.0172 12.8934 22.2715 12.7059 22.4591C12.5184 22.6466 12.264 22.752 11.9988 22.752C11.7336 22.752 11.4792 22.6466 11.2917 22.4591C11.1042 22.2715 10.9988 22.0172 10.9988 21.752V20.5C10.9989 20.278 10.9252 20.0623 10.7892 19.8869C10.6532 19.7114 10.4628 19.5862 10.2478 19.531C9.01615 19.2116 7.89513 18.5619 7.0058 17.652C6.85032 17.4935 6.64654 17.3913 6.42655 17.3614C6.20657 17.3315 5.9829 17.3757 5.7908 17.487L4.7068 18.114C4.59303 18.1807 4.46719 18.2242 4.33652 18.2421C4.20586 18.2599 4.07295 18.2518 3.94545 18.2181C3.81795 18.1843 3.69838 18.1257 3.59362 18.0456C3.48886 17.9655 3.40098 17.8655 3.33504 17.7513C3.26909 17.6371 3.22639 17.5109 3.2094 17.3802C3.1924 17.2494 3.20144 17.1165 3.23599 16.9893C3.27054 16.862 3.32993 16.7428 3.41073 16.6386C3.49153 16.5344 3.59215 16.4471 3.7068 16.382L4.7908 15.756C4.98275 15.6452 5.13247 15.4738 5.21646 15.2688C5.30044 15.0637 5.31393 14.8365 5.2548 14.623C4.91616 13.3959 4.91616 12.1 5.2548 10.873C5.31286 10.6598 5.29873 10.4335 5.21461 10.2292C5.13049 10.025 4.98111 9.85436 4.7898 9.74395L3.7058 9.11795C3.47599 8.98534 3.30827 8.76688 3.23954 8.51061C3.17081 8.25434 3.20669 7.98126 3.3393 7.75145C3.47191 7.52164 3.69038 7.35392 3.94664 7.28519C4.20291 7.21646 4.47599 7.25234 4.7058 7.38495L5.7918 8.01295C5.98338 8.12447 6.20658 8.16916 6.42633 8.14002C6.64607 8.11088 6.84991 8.00955 7.0058 7.85195C7.89589 6.9433 9.01722 6.29497 10.2488 5.97695C10.4644 5.92152 10.6554 5.79571 10.7914 5.61945C10.9275 5.4432 11.0008 5.22659 10.9998 5.00395V3.75195C10.9998 3.48674 11.1052 3.23238 11.2927 3.04485C11.4802 2.85731 11.7346 2.75195 11.9998 2.75195C12.265 2.75195 12.5194 2.85731 12.7069 3.04485C12.8944 3.23238 12.9998 3.48674 12.9998 3.75195V5.00395C12.9997 5.22591 13.0734 5.4416 13.2094 5.61703C13.3454 5.79247 13.5358 5.91769 13.7508 5.97295C14.9828 6.29211 16.1042 6.94184 16.9938 7.85195C17.1493 8.01042 17.3531 8.11265 17.573 8.14252C17.793 8.17239 18.0167 8.12822 18.2088 8.01695L19.2928 7.38995C19.4066 7.32326 19.5324 7.27972 19.6631 7.26186C19.7937 7.24399 19.9266 7.25215 20.0541 7.28585C20.1816 7.31956 20.3012 7.37816 20.406 7.45827C20.5107 7.53838 20.5986 7.63841 20.6646 7.75263C20.7305 7.86684 20.7732 7.99296 20.7902 8.12374C20.8072 8.25452 20.7982 8.38737 20.7636 8.51465C20.7291 8.64192 20.6697 8.7611 20.5889 8.86533C20.5081 8.96955 20.4074 9.05677 20.2928 9.12195L19.2088 9.74795C19.0178 9.85866 18.8689 10.0294 18.7851 10.2336C18.7014 10.4379 18.6876 10.6641 18.7458 10.877V10.876Z" fill="#9CA3AF"/>
</g>
<defs>
<clipPath id="clip0_10204_5185">
<rect width="24" height="24" fill="white" transform="translate(0 0.751953)"/>
</clipPath>
</defs>
</svg>
