<svg width="20" height="21" viewBox="0 0 20 21" fill="none" xmlns="http://www.w3.org/2000/svg">
<g clip-path="url(#clip0_10204_5200)">
<mask id="path-1-inside-1_10204_5200" fill="white">
<path d="M19.1673 9.66796H17.5006V8.0013C17.5006 7.78029 17.4128 7.56833 17.2566 7.41205C17.1003 7.25577 16.8883 7.16797 16.6673 7.16797C16.4463 7.16797 16.2343 7.25577 16.0781 7.41205C15.9218 7.56833 15.834 7.78029 15.834 8.0013V9.66796H14.1673C13.9463 9.66796 13.7343 9.75576 13.5781 9.91204C13.4218 10.0683 13.334 10.2803 13.334 10.5013C13.334 10.7223 13.4218 10.9343 13.5781 11.0905C13.7343 11.2468 13.9463 11.3346 14.1673 11.3346H15.834V13.0013C15.834 13.2223 15.9218 13.4343 16.0781 13.5905C16.2343 13.7468 16.4463 13.8346 16.6673 13.8346C16.8883 13.8346 17.1003 13.7468 17.2566 13.5905C17.4128 13.4343 17.5006 13.2223 17.5006 13.0013V11.3346H19.1673C19.3883 11.3346 19.6003 11.2468 19.7566 11.0905C19.9128 10.9343 20.0006 10.7223 20.0006 10.5013C20.0006 10.2803 19.9128 10.0683 19.7566 9.91204C19.6003 9.75576 19.3883 9.66796 19.1673 9.66796Z"/>
</mask>
<path d="M19.1673 9.66796H17.5006V8.0013C17.5006 7.78029 17.4128 7.56833 17.2566 7.41205C17.1003 7.25577 16.8883 7.16797 16.6673 7.16797C16.4463 7.16797 16.2343 7.25577 16.0781 7.41205C15.9218 7.56833 15.834 7.78029 15.834 8.0013V9.66796H14.1673C13.9463 9.66796 13.7343 9.75576 13.5781 9.91204C13.4218 10.0683 13.334 10.2803 13.334 10.5013C13.334 10.7223 13.4218 10.9343 13.5781 11.0905C13.7343 11.2468 13.9463 11.3346 14.1673 11.3346H15.834V13.0013C15.834 13.2223 15.9218 13.4343 16.0781 13.5905C16.2343 13.7468 16.4463 13.8346 16.6673 13.8346C16.8883 13.8346 17.1003 13.7468 17.2566 13.5905C17.4128 13.4343 17.5006 13.2223 17.5006 13.0013V11.3346H19.1673C19.3883 11.3346 19.6003 11.2468 19.7566 11.0905C19.9128 10.9343 20.0006 10.7223 20.0006 10.5013C20.0006 10.2803 19.9128 10.0683 19.7566 9.91204C19.6003 9.75576 19.3883 9.66796 19.1673 9.66796Z" fill="#2FB0EE"/>
<path d="M17.5006 9.66796H-3.83269V31.0013H17.5006V9.66796ZM16.6673 7.16797V28.5013V7.16797ZM15.834 9.66796V31.0013H37.1673V9.66796H15.834ZM15.834 11.3346H37.1673V-9.99871H15.834V11.3346ZM17.5006 11.3346V-9.99871H-3.83269V11.3346H17.5006ZM19.1673 -11.6654H17.5006V31.0013H19.1673V-11.6654ZM38.834 9.66796V8.0013H-3.83269V9.66796H38.834ZM38.834 8.0013C38.834 2.12237 36.4986 -3.51582 32.3415 -7.6729L2.17162 22.497C-1.6729 18.6525 -3.83269 13.4382 -3.83269 8.0013H38.834ZM32.3415 -7.6729C28.1845 -11.83 22.5463 -14.1654 16.6673 -14.1654V28.5013C11.2304 28.5013 6.01612 26.3415 2.17162 22.497L32.3415 -7.6729ZM16.6673 -14.1654C10.7884 -14.1654 5.15017 -11.83 0.993111 -7.6729L31.163 22.497C27.3185 26.3415 22.1042 28.5013 16.6673 28.5013V-14.1654ZM0.993111 -7.6729C-3.16397 -3.51582 -5.49936 2.12237 -5.49936 8.0013H37.1673C37.1673 13.4382 35.0075 18.6525 31.163 22.497L0.993111 -7.6729ZM-5.49936 8.0013V9.66796H37.1673V8.0013H-5.49936ZM15.834 -11.6654H14.1673V31.0013H15.834V-11.6654ZM14.1673 -11.6654C8.28836 -11.6654 2.65018 -9.32997 -1.50688 -5.1729L28.663 24.997C24.8185 28.8415 19.6042 31.0013 14.1673 31.0013V-11.6654ZM-1.50688 -5.1729C-5.66397 -1.01582 -7.99935 4.62237 -7.99935 10.5013H34.6673C34.6673 15.9382 32.5075 21.1525 28.663 24.997L-1.50688 -5.1729ZM-7.99935 10.5013C-7.99935 16.3802 -5.66397 22.0184 -1.50688 26.1755L28.663 -3.9944C32.5075 -0.149873 34.6673 5.06439 34.6673 10.5013H-7.99935ZM-1.50688 26.1755C2.65018 30.3326 8.28836 32.668 14.1673 32.668V-9.99871C19.6042 -9.99871 24.8185 -7.8389 28.663 -3.9944L-1.50688 26.1755ZM14.1673 32.668H15.834V-9.99871H14.1673V32.668ZM-5.49936 11.3346V13.0013H37.1673V11.3346H-5.49936ZM-5.49936 13.0013C-5.49936 18.8802 -3.16397 24.5184 0.993111 28.6755L31.163 -1.4944C35.0075 2.35012 37.1673 7.56439 37.1673 13.0013H-5.49936ZM0.993111 28.6755C5.15017 32.8326 10.7884 35.168 16.6673 35.168V-7.49871C22.1042 -7.49871 27.3185 -5.3389 31.163 -1.4944L0.993111 28.6755ZM16.6673 35.168C22.5463 35.168 28.1845 32.8326 32.3415 28.6755L2.17162 -1.4944C6.01612 -5.3389 11.2304 -7.49871 16.6673 -7.49871V35.168ZM32.3415 28.6755C36.4986 24.5184 38.834 18.8802 38.834 13.0013H-3.83269C-3.83269 7.56439 -1.6729 2.35012 2.17162 -1.4944L32.3415 28.6755ZM38.834 13.0013V11.3346H-3.83269V13.0013H38.834ZM17.5006 32.668H19.1673V-9.99871H17.5006V32.668ZM19.1673 32.668C25.0463 32.668 30.6844 30.3326 34.8415 26.1755L4.67162 -3.9944C8.51612 -7.8389 13.7304 -9.99871 19.1673 -9.99871V32.668ZM34.8415 26.1755C38.9986 22.0184 41.334 16.3802 41.334 10.5013H-1.3327C-1.3327 5.06439 0.827094 -0.149873 4.67162 -3.9944L34.8415 26.1755ZM41.334 10.5013C41.334 4.62237 38.9986 -1.01582 34.8415 -5.1729L4.67162 24.997C0.827094 21.1525 -1.3327 15.9382 -1.3327 10.5013H41.334ZM34.8415 -5.1729C30.6844 -9.32997 25.0463 -11.6654 19.1673 -11.6654V31.0013C13.7304 31.0013 8.51612 28.8415 4.67162 24.997L34.8415 -5.1729Z" fill="#2FB0EE" mask="url(#path-1-inside-1_10204_5200)"/>
<path d="M7.5 10.5C8.48891 10.5 9.45561 10.2068 10.2779 9.65735C11.1001 9.10794 11.741 8.32705 12.1194 7.41342C12.4978 6.49979 12.5969 5.49446 12.4039 4.52455C12.211 3.55465 11.7348 2.66373 11.0355 1.96447C10.3363 1.26521 9.44536 0.789002 8.47545 0.596076C7.50555 0.40315 6.50021 0.502166 5.58658 0.880605C4.67295 1.25904 3.89206 1.89991 3.34265 2.72215C2.79324 3.5444 2.5 4.5111 2.5 5.5C2.50132 6.82568 3.02853 8.09668 3.96593 9.03407C4.90332 9.97147 6.17432 10.4987 7.5 10.5ZM7.5 2.16667C8.15927 2.16667 8.80374 2.36217 9.3519 2.72844C9.90006 3.09471 10.3273 3.6153 10.5796 4.22439C10.8319 4.83348 10.8979 5.5037 10.7693 6.1503C10.6407 6.79691 10.3232 7.39085 9.85702 7.85703C9.39085 8.3232 8.79691 8.64067 8.1503 8.76929C7.5037 8.8979 6.83348 8.83189 6.22439 8.5796C5.6153 8.32731 5.09471 7.90007 4.72843 7.3519C4.36216 6.80374 4.16667 6.15927 4.16667 5.5C4.16667 4.61595 4.51786 3.7681 5.14298 3.14298C5.7681 2.51786 6.61595 2.16667 7.5 2.16667Z" fill="#2FB0EE"/>
<path d="M7.5 12.168C5.51155 12.1702 3.60518 12.9611 2.19914 14.3671C0.79309 15.7731 0.00220571 17.6795 0 19.668C0 19.889 0.0877974 20.1009 0.244078 20.2572C0.400358 20.4135 0.61232 20.5013 0.833333 20.5013C1.05435 20.5013 1.26631 20.4135 1.42259 20.2572C1.57887 20.1009 1.66667 19.889 1.66667 19.668C1.66667 18.1209 2.28125 16.6371 3.37521 15.5432C4.46917 14.4492 5.9529 13.8346 7.5 13.8346C9.0471 13.8346 10.5308 14.4492 11.6248 15.5432C12.7188 16.6371 13.3333 18.1209 13.3333 19.668C13.3333 19.889 13.4211 20.1009 13.5774 20.2572C13.7337 20.4135 13.9457 20.5013 14.1667 20.5013C14.3877 20.5013 14.5996 20.4135 14.7559 20.2572C14.9122 20.1009 15 19.889 15 19.668C14.9978 17.6795 14.2069 15.7731 12.8009 14.3671C11.3948 12.9611 9.48845 12.1702 7.5 12.168Z" fill="#2FB0EE"/>
</g>
<defs>
<clipPath id="clip0_10204_5200">
<rect width="20" height="20" fill="white" transform="translate(0 0.5)"/>
</clipPath>
</defs>
</svg>
