<svg width="24" height="25" viewBox="0 0 24 25" fill="none" xmlns="http://www.w3.org/2000/svg">
<g clip-path="url(#clip0_10204_5172)">
<path d="M21 24.752H19V19.709C18.9992 18.925 18.6874 18.1733 18.133 17.6189C17.5787 17.0645 16.827 16.7527 16.043 16.752H7.957C7.173 16.7527 6.42134 17.0645 5.86696 17.6189C5.31259 18.1733 5.00079 18.925 5 19.709V24.752H3V19.709C3.00159 18.3948 3.52435 17.1349 4.45363 16.2056C5.3829 15.2763 6.64281 14.7535 7.957 14.752H16.043C17.3572 14.7535 18.6171 15.2763 19.5464 16.2056C20.4756 17.1349 20.9984 18.3948 21 19.709V24.752Z" fill="white"/>
<path d="M12 12.752C10.8133 12.752 9.65328 12.4001 8.66658 11.7408C7.67989 11.0815 6.91085 10.1444 6.45673 9.04806C6.0026 7.9517 5.88378 6.7453 6.11529 5.58141C6.3468 4.41753 6.91825 3.34843 7.75736 2.50932C8.59648 1.6702 9.66558 1.09876 10.8295 0.867244C11.9933 0.635733 13.1997 0.754553 14.2961 1.20868C15.3925 1.6628 16.3295 2.43184 16.9888 3.41853C17.6481 4.40523 18 5.56527 18 6.75196C17.9984 8.34277 17.3658 9.86797 16.2409 10.9928C15.116 12.1177 13.5908 12.7504 12 12.752ZM12 2.75196C11.2089 2.75196 10.4355 2.98655 9.77772 3.42608C9.11993 3.8656 8.60724 4.49032 8.30448 5.22122C8.00173 5.95213 7.92252 6.75639 8.07686 7.53232C8.2312 8.30824 8.61217 9.02097 9.17158 9.58038C9.73099 10.1398 10.4437 10.5208 11.2196 10.6751C11.9956 10.8294 12.7998 10.7502 13.5307 10.4475C14.2616 10.1447 14.8864 9.63203 15.3259 8.97424C15.7654 8.31644 16 7.54308 16 6.75196C16 5.69109 15.5786 4.67367 14.8284 3.92353C14.0783 3.17338 13.0609 2.75196 12 2.75196Z" fill="white"/>
</g>
<defs>
<clipPath id="clip0_10204_5172">
<rect width="24" height="24" fill="white" transform="translate(0 0.751953)"/>
</clipPath>
</defs>
</svg>
