<svg width="32" height="32" viewBox="0 0 32 32" fill="none" xmlns="http://www.w3.org/2000/svg">
<path d="M27.2495 9.55891V12.1839C27.2491 11.7212 27.0652 11.2776 26.738 10.9504C26.4108 10.6233 25.9672 10.4393 25.5045 10.4389H18.6945C18.4116 10.4388 18.1346 10.3587 17.8952 10.2079C17.6559 10.057 17.4641 9.84158 17.342 9.58641L16.407 7.64141C16.385 7.594 16.36 7.54807 16.332 7.50391H25.1945C25.7396 7.50391 26.2622 7.72041 26.6476 8.1058C27.033 8.49119 27.2495 9.01389 27.2495 9.55891Z" fill="#108FCC"/>
<path d="M27.25 12.1841V23.4666C27.2501 23.9296 27.0664 24.3738 26.7392 24.7015C26.412 25.0292 25.9681 25.2135 25.505 25.2141H6.495C6.03193 25.2135 5.58801 25.0292 5.2608 24.7015C4.93359 24.3738 4.74987 23.9296 4.75 23.4666V8.53656C4.74987 8.07349 4.93359 7.62931 5.2608 7.30163C5.58801 6.97395 6.03193 6.78959 6.495 6.78906H15.055C15.3113 6.78918 15.5633 6.85496 15.7869 6.98013C16.0105 7.1053 16.1984 7.28568 16.3325 7.50406C16.3605 7.54822 16.3855 7.59415 16.4075 7.64156L17.3425 9.58656C17.4646 9.84174 17.6564 10.0572 17.8957 10.208C18.135 10.3589 18.4121 10.439 18.695 10.4391H25.505C25.9677 10.4395 26.4113 10.6234 26.7385 10.9506C27.0656 11.2778 27.2496 11.7214 27.25 12.1841Z" fill="#40B8F2"/>
</svg>
