<svg width="24" height="25" viewBox="0 0 24 25" fill="none" xmlns="http://www.w3.org/2000/svg">
<path d="M23.121 9.82106L15.536 2.23506C14.5973 1.29905 13.3257 0.773437 12 0.773438C10.6744 0.773437 9.40277 1.29905 8.46401 2.23506L0.879012 9.82106C0.599438 10.0988 0.377782 10.4294 0.226895 10.7934C0.0760072 11.1575 -0.0011104 11.548 1.20795e-05 11.9421V21.7591C1.20795e-05 22.5547 0.316083 23.3178 0.878692 23.8804C1.4413 24.443 2.20436 24.7591 3.00001 24.7591H21C21.7957 24.7591 22.5587 24.443 23.1213 23.8804C23.6839 23.3178 24 22.5547 24 21.7591V11.9421C24.0011 11.548 23.924 11.1575 23.7731 10.7934C23.6222 10.4294 23.4006 10.0988 23.121 9.82106ZM15 22.7591H9.00001V18.8251C9.00001 18.0294 9.31608 17.2664 9.87869 16.7037C10.4413 16.1411 11.2044 15.8251 12 15.8251C12.7957 15.8251 13.5587 16.1411 14.1213 16.7037C14.6839 17.2664 15 18.0294 15 18.8251V22.7591ZM22 21.7591C22 22.0243 21.8947 22.2786 21.7071 22.4662C21.5196 22.6537 21.2652 22.7591 21 22.7591H17V18.8251C17 17.499 16.4732 16.2272 15.5355 15.2895C14.5979 14.3518 13.3261 13.8251 12 13.8251C10.6739 13.8251 9.40216 14.3518 8.46448 15.2895C7.5268 16.2272 7.00001 17.499 7.00001 18.8251V22.7591H3.00001C2.7348 22.7591 2.48044 22.6537 2.29291 22.4662C2.10537 22.2786 2.00001 22.0243 2.00001 21.7591V11.9421C2.00094 11.677 2.1062 11.423 2.29301 11.2351L9.87801 3.65206C10.4417 3.09099 11.2047 2.77601 12 2.77601C12.7953 2.77601 13.5583 3.09099 14.122 3.65206L21.707 11.2381C21.8931 11.4253 21.9983 11.6781 22 11.9421V21.7591Z" fill="#9CA3AF"/>
</svg>
