<svg width="41" height="41" viewBox="0 0 41 41" fill="none" xmlns="http://www.w3.org/2000/svg">
<path d="M20.3174 40.6348C18.794 40.6348 17.2705 40.0547 16.1104 38.8946L1.74018 24.5244C-0.580061 22.2041 -0.580061 18.4307 1.74018 16.1104L16.1104 1.74018C18.4307 -0.580061 22.2041 -0.580061 24.5244 1.74018L38.8946 16.1104C41.2148 18.4307 41.2148 22.2041 38.8946 24.5244L24.5244 38.8946C23.3642 40.0547 21.8408 40.6348 20.3174 40.6348ZM20.3174 0.851772C19.0107 0.851772 17.7071 1.3494 16.7119 2.34161L2.34161 16.7119C0.354143 18.6993 0.354143 21.9324 2.34161 23.9199L16.7119 38.2901C18.6993 40.2776 21.9324 40.2776 23.9199 38.2901L38.2901 23.9199C40.2776 21.9324 40.2776 18.6993 38.2901 16.7119L23.9199 2.34161C22.9277 1.3494 21.621 0.851772 20.3174 0.851772Z" fill="#8EFFC1"/>
<mask id="mask0_6819_1613" style="mask-type:luminance" maskUnits="userSpaceOnUse" x="9" y="6" width="14" height="10">
<path d="M22.878 14.8199L22.8261 10.4939C22.7253 9.06512 21.8277 7.81341 20.5028 7.26388C19.1808 6.71435 17.6605 6.96164 16.5767 7.89889L9.96398 14.5116C9.78996 14.6948 9.72585 14.9543 9.78996 15.1985C9.85407 15.4427 10.0434 15.6351 10.2845 15.7083L21.8674 15.8305C22.3956 15.7602 22.8108 15.345 22.878 14.8199Z" fill="white"/>
</mask>
<g mask="url(#mask0_6819_1613)">
<path d="M22.8817 6.71387H9.72656V15.8269H22.8817V6.71387Z" fill="url(#paint0_linear_6819_1613)"/>
</g>
<mask id="mask1_6819_1613" style="mask-type:luminance" maskUnits="userSpaceOnUse" x="17" y="24" width="14" height="10">
<path d="M17.7617 25.8162L17.8136 30.1422C17.9144 31.571 18.815 32.8227 20.1369 33.3722C21.4588 33.9218 22.9792 33.6745 24.063 32.7372L30.6757 26.1245C30.8497 25.9414 30.9169 25.6788 30.8497 25.4346C30.7856 25.1903 30.5963 24.998 30.3551 24.9247L18.7722 24.8057C18.241 24.8728 17.8258 25.288 17.7617 25.8162Z" fill="white"/>
</mask>
<g mask="url(#mask1_6819_1613)">
<path d="M30.9169 24.8057H17.7617V33.9187H30.9169V24.8057Z" fill="url(#paint1_linear_6819_1613)"/>
</g>
<path fill-rule="evenodd" clip-rule="evenodd" d="M18.8494 11.0918L14.1936 15.7475L10.2858 15.7079C10.0447 15.6346 9.85537 15.4422 9.79126 15.198C9.72409 14.9538 9.79126 14.6943 9.96528 14.5111L16.578 7.8984C17.6618 6.96115 19.1821 6.71386 20.5041 7.26339C21.8229 7.80987 22.7205 9.05242 22.8243 10.4781C22.809 10.472 22.7938 10.4629 22.7755 10.4568C21.4535 9.90725 19.9332 10.1545 18.8494 11.0918Z" fill="#8EFFC1"/>
<path fill-rule="evenodd" clip-rule="evenodd" d="M21.7874 29.541L26.4432 24.8853L30.351 24.9249C30.5922 24.9982 30.7814 25.1905 30.8455 25.4348C30.9127 25.679 30.8455 25.9385 30.6715 26.1217L24.0588 32.7344C22.975 33.6716 21.4547 33.9189 20.1327 33.3694C18.8139 32.8229 17.9163 31.5804 17.8125 30.1546C17.8278 30.1608 17.843 30.1699 17.8613 30.176C19.1833 30.7255 20.7067 30.4783 21.7874 29.541Z" fill="#8EFFC1"/>
<mask id="mask2_6819_1613" style="mask-type:luminance" maskUnits="userSpaceOnUse" x="6" y="17" width="10" height="14">
<path d="M14.8214 17.7559L10.4954 17.8078C9.06658 17.9085 7.81487 18.8061 7.26534 20.1311C6.71581 21.453 6.9631 22.9733 7.90036 24.0571L14.513 30.6698C14.6962 30.8439 14.9557 30.908 15.2 30.8439C15.4442 30.7797 15.6365 30.5905 15.7098 30.3493L15.8319 18.7664C15.7617 18.2382 15.3465 17.823 14.8214 17.7559Z" fill="white"/>
</mask>
<g mask="url(#mask2_6819_1613)">
<path d="M15.8318 17.7559H6.71875V30.911H15.8318V17.7559Z" fill="url(#paint2_linear_6819_1613)"/>
</g>
<mask id="mask3_6819_1613" style="mask-type:luminance" maskUnits="userSpaceOnUse" x="24" y="9" width="10" height="14">
<path d="M25.8152 22.8753L30.1412 22.8235C31.57 22.7227 32.8217 21.8221 33.3713 20.5002C33.9208 19.1782 33.6735 17.6579 32.7363 16.5741L26.1236 9.96137C25.9404 9.78735 25.6778 9.72019 25.4336 9.78735C25.1894 9.85146 24.997 10.0407 24.9238 10.2819L24.8047 21.8648C24.8719 22.393 25.2871 22.8082 25.8152 22.8753Z" fill="white"/>
</mask>
<g mask="url(#mask3_6819_1613)">
<path d="M33.9177 9.72021H24.8047V22.8754H33.9177V9.72021Z" fill="url(#paint3_linear_6819_1613)"/>
</g>
<path fill-rule="evenodd" clip-rule="evenodd" d="M11.0937 21.786L15.7495 26.4417L15.7098 30.3495C15.6365 30.5907 15.4442 30.78 15.2 30.8441C14.9557 30.9112 14.6962 30.8441 14.513 30.6701L7.90036 24.0574C6.9631 22.9736 6.71581 21.4532 7.26534 20.1313C7.81182 18.8124 9.05437 17.9148 10.4801 17.811C10.474 17.8263 10.4648 17.8416 10.4587 17.8599C9.9092 19.1818 10.1565 20.7022 11.0937 21.786Z" fill="#2DDAFF"/>
<path fill-rule="evenodd" clip-rule="evenodd" d="M29.5425 18.8455L24.8867 14.1897L24.9264 10.2819C24.9997 10.0407 25.192 9.85146 25.4363 9.78735C25.6805 9.72019 25.94 9.78735 26.1232 9.96137L32.7359 16.5741C33.6731 17.6579 33.9204 19.1782 33.3709 20.5002C32.8244 21.819 31.5818 22.7166 30.1561 22.8204C30.1622 22.8051 30.1714 22.7899 30.1775 22.7716C30.727 21.4496 30.4828 19.9293 29.5425 18.8455Z" fill="#2DDAFF"/>
<path d="M22.318 23.407H18.3126C17.7111 23.407 17.2227 22.9185 17.2227 22.3171V18.3116C17.2227 17.7102 17.7111 17.2217 18.3126 17.2217H22.318C22.9195 17.2217 23.4079 17.7102 23.4079 18.3116V22.3171C23.4049 22.9215 22.9195 23.407 22.318 23.407Z" fill="#8EFFC1"/>
<defs>
<linearGradient id="paint0_linear_6819_1613" x1="22.7709" y1="11.0835" x2="9.68291" y2="11.4636" gradientUnits="userSpaceOnUse">
<stop stop-color="#2E384D"/>
<stop offset="1" stop-color="#13B9B9"/>
</linearGradient>
<linearGradient id="paint1_linear_6819_1613" x1="17.7355" y1="29.3637" x2="30.8488" y2="29.3609" gradientUnits="userSpaceOnUse">
<stop stop-color="#2E384D"/>
<stop offset="1" stop-color="#13B9B9"/>
</linearGradient>
<linearGradient id="paint2_linear_6819_1613" x1="11.2765" y1="13.9425" x2="11.2765" y2="30.847" gradientUnits="userSpaceOnUse">
<stop stop-color="#2E384D"/>
<stop offset="1" stop-color="#13B9B9"/>
</linearGradient>
<linearGradient id="paint3_linear_6819_1613" x1="29.3617" y1="27.4888" x2="29.3617" y2="9.78353" gradientUnits="userSpaceOnUse">
<stop stop-color="#2E384D"/>
<stop offset="1" stop-color="#13B9B9"/>
</linearGradient>
</defs>
</svg>