<svg width="166" height="40" viewBox="0 0 166 40" fill="none" xmlns="http://www.w3.org/2000/svg">
<path fill-rule="evenodd" clip-rule="evenodd" d="M13.5363 12.0954C13.25 10.2992 13.3282 8.45088 14.0309 6.73277C14.3953 5.87372 14.8641 5.09283 15.4366 4.41599C16.504 3.24453 17.9097 2.41161 19.4976 2.09921C21.7104 1.63049 24.0013 2.17736 25.7453 3.55693C27.958 5.30117 28.9993 7.9824 29.2855 10.7156L29.3117 10.872L26.6825 9.49215C26.318 7.93036 25.563 6.4465 24.2875 5.43113C23.064 4.46802 21.502 4.10358 19.9923 4.41599C18.5866 4.70226 17.3892 5.53542 16.6601 6.7589C15.3067 8.9455 15.6711 11.783 16.5301 14.0998C17.5192 16.8331 17.1809 17.2495 14.7077 15.4535C13.3282 14.4643 11.5839 13.6572 9.8138 13.8133C8.01776 13.9955 6.74202 15.115 6.29965 16.8072C5.33631 20.2693 8.40809 23.0025 10.9594 24.5384C12.8074 25.6579 14.9681 26.4388 17.5714 27.1417C19.3936 27.5582 20.1224 28.4172 18.2221 28.235C13.7187 27.7665 8.12182 26.3608 5.25838 22.5602C3.38396 20.0609 2.99362 16.729 4.86782 14.1257C5.98725 12.5898 7.70536 11.6529 9.57955 11.4706C10.9594 11.3405 12.2869 11.6008 13.5363 12.0954ZM18.1181 5.97778L26.3701 10.169C28.0882 11.0542 29.8063 11.9132 31.5244 12.7982L36.3663 15.2452C40.0888 17.1455 40.0888 22.5079 36.3663 24.4082L26.7606 29.3024C23.7929 30.6559 24.5218 29.7709 26.2399 28.6515C27.6717 27.6884 32.4614 24.7206 35.0647 22.6642C36.9909 21.1545 37.1731 18.3169 34.6741 17.0414L30.8735 15.115C29.2076 14.282 27.5415 13.423 25.8754 12.5898L16.7644 7.95626C17.1027 7.14924 17.5973 6.42037 18.1181 5.97778ZM13.4584 6.26429L6.40371 2.69788C5.51853 2.22939 4.55541 2.28142 3.69636 2.80194C2.83731 3.32269 2.36882 4.15561 2.36882 5.14486V34.5085C2.36882 35.4978 2.83731 36.3309 3.69636 36.8776C4.55541 37.3981 5.51853 37.4242 6.40371 36.9816L12.7295 33.7538C20.9033 29.6146 26.7606 23.0807 27.0469 14.0998L29.3637 15.2452C28.6348 24.5646 22.4392 31.489 13.8228 35.8622L7.47111 39.0903C5.85706 39.9232 4.00877 39.8451 2.44698 38.882C0.911086 37.9189 0 36.3309 0 34.5085V5.14486C0 3.32269 0.911086 1.73477 2.44698 0.77166C4.00877 -0.191685 5.85706 -0.243717 7.47111 0.563309L14.6818 4.23377C14.1872 4.83245 13.7708 5.53542 13.4584 6.26429Z" fill="url(#paint0_linear_6803_29404)"/>
<path d="M47.7871 17.6227C47.7871 14.3134 50.4674 11.6057 53.7768 11.6057H64.3066C67.6159 11.6057 70.3236 14.3134 70.3236 17.6227V22.0261C70.3236 25.3355 67.6159 28.0158 64.3066 28.0158H53.7768C50.4674 28.0158 47.7871 25.3355 47.7871 22.0261V17.6227ZM53.7768 25.7731H64.3066C66.3852 25.7731 68.0535 24.0773 68.0535 22.0261V17.6227C68.0535 15.5715 66.3852 13.8758 64.3066 13.8758H53.7768C51.7255 13.8758 50.0298 15.5715 50.0298 17.6227V22.0261C50.0298 24.0773 51.7255 25.7731 53.7768 25.7731Z" fill="#40B8F2"/>
<path d="M75.2568 11.6057H78.6756L92.8429 26.0192V11.6057H95.0856V28.0158H91.6395L77.4995 13.6296V28.0158H75.2568V11.6057Z" fill="#40B8F2"/>
<path d="M117.944 28.0158H100.002V11.6057H102.245V25.7731H117.944V28.0158Z" fill="#40B8F2"/>
<path d="M122.878 25.7731H141.695V28.0158H122.878V25.7731ZM122.878 18.6894H139.069V20.9594H122.878V18.6894ZM122.878 11.6057H141.695V13.8758H122.878V11.6057Z" fill="#40B8F2"/>
<path d="M155.169 28.0158V20.2757L146.608 11.6057H149.754L156.29 18.2244L162.827 11.6057H166L157.439 20.2757V28.0158H155.169Z" fill="#40B8F2"/>
<defs>
<linearGradient id="paint0_linear_6803_29404" x1="-2.35546e-07" y1="34.7066" x2="52.6899" y2="15.5094" gradientUnits="userSpaceOnUse">
<stop stop-color="#40B8F2"/>
<stop offset="1" stop-color="#40B8F2" stop-opacity="0.46"/>
</linearGradient>
</defs>
</svg>
