<svg width="38" height="38" viewBox="0 0 38 38" fill="none" xmlns="http://www.w3.org/2000/svg">
<path fill-rule="evenodd" clip-rule="evenodd" d="M12.8839 11.5121C12.6115 9.80236 12.6859 8.04313 13.3547 6.40783C13.7016 5.59017 14.1477 4.84692 14.6927 4.2027C15.7086 3.08769 17.0466 2.29491 18.558 1.99757C20.6641 1.55143 22.8446 2.07195 24.5045 3.38504C26.6106 5.04522 27.6017 7.59723 27.8742 10.1988L27.8991 10.3475L25.3966 9.03423C25.0497 7.5477 24.3311 6.13535 23.117 5.16891C21.9525 4.25222 20.4658 3.90535 19.0288 4.2027C17.6908 4.47517 16.5512 5.26818 15.8572 6.4327C14.569 8.51392 14.9159 11.2147 15.7335 13.4198C16.6749 16.0214 16.3529 16.4178 13.9989 14.7083C12.6859 13.7667 11.0257 12.9986 9.34084 13.1471C7.63136 13.3206 6.4171 14.3861 5.99606 15.9967C5.07914 19.292 8.00288 21.8935 10.4312 23.3554C12.1902 24.4209 14.2468 25.1641 16.7246 25.8332C18.459 26.2296 19.1527 27.0473 17.3439 26.8738C13.0576 26.4279 7.73041 25.09 5.00497 21.4725C3.22087 19.0937 2.84935 15.9223 4.63322 13.4445C5.69871 11.9826 7.33402 11.0908 9.11789 10.9174C10.4312 10.7934 11.6948 11.0413 12.8839 11.5121ZM17.2449 5.68922L25.0992 9.67844C26.7345 10.521 28.3698 11.3386 30.0051 12.1809L34.6137 14.51C38.1568 16.3187 38.1568 21.4227 34.6137 23.2315L25.471 27.8898C22.6463 29.178 23.34 28.3357 24.9753 27.2702C26.3381 26.3535 30.897 23.5288 33.3748 21.5715C35.2082 20.1345 35.3816 17.4337 33.0031 16.2197L29.3856 14.3861C27.8 13.5933 26.2142 12.7756 24.6284 11.9826L15.9565 7.57235C16.2785 6.80422 16.7493 6.11048 17.2449 5.68922ZM12.8098 5.96192L6.0951 2.56739C5.25257 2.12148 4.33588 2.171 3.51822 2.66643C2.70057 3.16209 2.25466 3.95487 2.25466 4.89643V32.845C2.25466 33.7866 2.70057 34.5796 3.51822 35.0999C4.33588 35.5953 5.25257 35.6202 6.0951 35.1989L12.116 32.1266C19.896 28.1869 25.471 21.9679 25.7434 13.4198L27.9486 14.51C27.2548 23.3803 21.3578 29.971 13.1566 34.1334L7.11106 37.206C5.57479 37.9988 3.81557 37.9244 2.32905 37.0077C0.867178 36.091 0 34.5796 0 32.845V4.89643C0 3.16208 0.867178 1.65069 2.32905 0.733994C3.81557 -0.182922 5.57479 -0.232445 7.11106 0.535686L13.9743 4.02926C13.5035 4.59909 13.1071 5.26818 12.8098 5.96192Z" fill="url(#paint0_linear_8477_1481)"/>
<defs>
<linearGradient id="paint0_linear_8477_1481" x1="-2.24194e-07" y1="33.0335" x2="50.1506" y2="14.7615" gradientUnits="userSpaceOnUse">
<stop stop-color="#40B8F2"/>
<stop offset="1" stop-color="#40B8F2" stop-opacity="0.46"/>
</linearGradient>
</defs>
</svg>
