<svg xmlns="http://www.w3.org/2000/svg" width="107" height="17" viewBox="0 0 107 17" fill="none">
<path d="M5.95814 0.701172H9.17648H10.3614H11.4163H13.0623H15.8196C18.9135 0.701172 21.4446 3.23512 21.4446 6.3262V10.441C21.4446 13.535 18.9107 16.0661 15.8196 16.0661H13.1641H11.4191H10.3614H8.16121H5.96097C2.86706 16.0661 0.33594 13.535 0.33594 10.441V6.3262C0.333112 3.23229 2.86423 0.701172 5.95814 0.701172ZM8.15838 13.9563H10.3614H11.4163H13.1612H15.8168C17.7512 13.9563 19.3349 12.3754 19.3349 10.441V6.3262C19.3349 4.3918 17.754 2.81091 15.8168 2.81091H13.0594H11.4135H10.3614H9.17931H5.96097C4.02657 2.81091 2.44285 4.3918 2.44285 6.3262V10.441C2.44285 12.3754 4.02374 13.9563 5.96097 13.9563H8.15838Z" fill="#13B9B9"/>
<path d="M28.7496 0.70166L41.9991 14.1859V0.70166H44.1088V16.0694H40.8905L27.641 2.58516V16.0694H25.5312V0.70166H28.7496Z" fill="#13B9B9"/>
<path d="M48.5938 16.066V0.698242H50.7035V13.9562H65.4038V16.066H48.5938Z" fill="#13B9B9"/>
<path d="M85.901 0.70166V2.8114H69.0938V0.70166H85.901ZM85.901 7.33066V9.44039H69.0938V7.33066H85.901ZM85.901 13.9568V16.0666H69.0938V13.9568H85.901Z" fill="#13B9B9"/>
<path d="M96.8549 8.81821L88.8203 0.70166H91.7898L97.9097 6.88665L104.032 0.70166H106.999L98.9646 8.81821V16.0666H96.8549V8.81821Z" fill="#13B9B9"/>
</svg>