<svg width="8" height="14" viewBox="0 0 8 14" fill="none" xmlns="http://www.w3.org/2000/svg">
<path fill-rule="evenodd" clip-rule="evenodd" d="M4 0C4.2652 0 4.5196 0.10536 4.7071 0.29289L7.7071 3.29289C8.0976 3.68342 8.0976 4.31658 7.7071 4.70711C7.3166 5.09763 6.6834 5.09763 6.2929 4.70711L4 2.41421L1.70711 4.70711C1.31658 5.09763 0.68342 5.09763 0.29289 4.70711C-0.09763 4.31658 -0.09763 3.68342 0.29289 3.29289L3.29289 0.29289C3.48043 0.10536 3.73478 0 4 0V0ZM0.29289 9.2929C0.68342 8.9024 1.31658 8.9024 1.70711 9.2929L4 11.5858L6.2929 9.2929C6.6834 8.9024 7.3166 8.9024 7.7071 9.2929C8.0976 9.6834 8.0976 10.3166 7.7071 10.7071L4.7071 13.7071C4.3166 14.0976 3.68342 14.0976 3.29289 13.7071L0.29289 10.7071C-0.09763 10.3166 -0.09763 9.6834 0.29289 9.2929V9.2929Z" fill="#FFFFFF"/>
</svg>
