<svg width="24" height="25" viewBox="0 0 24 25" fill="none" xmlns="http://www.w3.org/2000/svg">
<path d="M19.5008 24.7518C19.301 24.752 19.1056 24.6923 18.94 24.5803C18.7744 24.4684 18.6462 24.3094 18.5718 24.1238L17.7278 22.0108L15.6118 21.1198C15.4303 21.0397 15.2766 20.9077 15.1698 20.7404C15.0631 20.5732 15.0081 20.3781 15.0119 20.1797C15.0156 19.9813 15.0779 19.7885 15.1908 19.6253C15.3038 19.4622 15.4624 19.3361 15.6468 19.2628L17.7348 18.4718L18.5718 16.3798C18.6488 16.197 18.778 16.041 18.9433 15.9313C19.1085 15.8216 19.3025 15.763 19.5008 15.763C19.6992 15.763 19.8932 15.8216 20.0584 15.9313C20.2237 16.041 20.3529 16.197 20.4298 16.3798L21.2708 18.4798L23.3708 19.3208C23.554 19.3975 23.7105 19.5266 23.8205 19.6918C23.9305 19.8571 23.9892 20.0513 23.9892 20.2498C23.9892 20.4484 23.9305 20.6426 23.8205 20.8078C23.7105 20.9731 23.554 21.1022 23.3708 21.1788L21.2708 22.0198L20.4298 24.1198C20.3561 24.3061 20.2281 24.466 20.0625 24.5787C19.8969 24.6913 19.7012 24.7517 19.5008 24.7518ZM10.0008 21.7518C9.56882 21.757 9.14673 21.6222 8.79774 21.3675C8.44874 21.1128 8.19162 20.7519 8.06484 20.3388L6.45084 15.2918L1.38784 13.5978C0.979206 13.4613 0.624561 13.1983 0.37513 12.847C0.1257 12.4957 -0.00560389 12.0742 0.000183412 11.6434C0.00597072 11.2125 0.14855 10.7947 0.407327 10.4502C0.666104 10.1057 1.02768 9.85241 1.43984 9.72685L6.46284 8.19285L8.15484 3.13885C8.28065 2.72372 8.54087 2.36218 8.89459 2.11111C9.24831 1.86003 9.67545 1.73365 10.1088 1.75185C10.5409 1.75243 10.9612 1.89294 11.3068 2.15235C11.6524 2.41175 11.9046 2.7761 12.0258 3.19085L13.5578 8.20585L18.5878 9.81585C18.9936 9.95193 19.3463 10.212 19.5962 10.5594C19.846 10.9068 19.9805 11.3239 19.9805 11.7518C19.9805 12.1798 19.846 12.5969 19.5962 12.9443C19.3463 13.2917 18.9936 13.5518 18.5878 13.6878L13.5488 15.2998L11.9368 20.3388C11.8101 20.7519 11.5529 21.1128 11.204 21.3675C10.855 21.6222 10.4329 21.757 10.0008 21.7518ZM10.1128 3.77485L8.20084 9.31585C8.15043 9.46709 8.06459 9.60409 7.95048 9.71542C7.83636 9.82675 7.69729 9.90919 7.54484 9.95585L2.02384 11.6398L7.56484 13.5568C7.71392 13.6065 7.84919 13.6906 7.95969 13.8023C8.07019 13.9141 8.1528 14.0502 8.20084 14.1998L9.97084 19.7298L11.8008 14.1998C11.8494 14.048 11.9335 13.91 12.0462 13.7973C12.159 13.6845 12.297 13.6004 12.4488 13.5518L17.9788 11.7828C17.9859 11.7809 17.9927 11.7779 17.9988 11.7738L12.4488 9.95185C12.2948 9.9026 12.155 9.81673 12.0415 9.7016C11.9279 9.58648 11.844 9.44553 11.7968 9.29085L10.1128 3.77485ZM20.5008 7.75185C20.2779 7.75184 20.0614 7.67735 19.8856 7.54019C19.7099 7.40304 19.585 7.21109 19.5308 6.99485L19.1738 5.56485L17.7408 5.17985C17.5255 5.12198 17.3356 4.99378 17.2015 4.81561C17.0673 4.63745 16.9966 4.41956 17.0005 4.19657C17.0044 3.97359 17.0827 3.75831 17.223 3.58496C17.3633 3.41161 17.5576 3.29013 17.7748 3.23985L19.1748 2.91485L19.5308 1.50885C19.585 1.29262 19.7099 1.1007 19.8857 0.963567C20.0614 0.826434 20.2779 0.751953 20.5008 0.751953C20.7238 0.751953 20.9403 0.826434 21.116 0.963567C21.2918 1.1007 21.4167 1.29262 21.4708 1.50885L21.8248 2.92685L23.2428 3.28185C23.4591 3.33604 23.651 3.46092 23.7881 3.63667C23.9253 3.81241 23.9997 4.02893 23.9997 4.25185C23.9997 4.47476 23.9253 4.69129 23.7881 4.86703C23.651 5.04277 23.4591 5.16766 23.2428 5.22185L21.8248 5.57685L21.4708 6.99485C21.4167 7.21109 21.2918 7.40304 21.1161 7.54019C20.9403 7.67735 20.7238 7.75184 20.5008 7.75185Z" fill="#9CA3AF"/>
</svg>
